{
  "accessors": [
    {
      "bufferView": 2,
      "componentType": 5126,
      "count": 65532,
      "max": [
        21.041147232055664,
        18.719213485717773,
        22.755001068115234
      ],
      "min": [
        -20.305931091308594,
        -19.81401252746582,
        0.57980823516845703
      ],
      "type": "VEC3"
    },
    {
      "bufferView": 2,
      "byteOffset": 786384,
      "componentType": 5126,
      "count": 65532,
      "max": [
        0.99999654293060303,
        0.99997764825820923,
        1
      ],
      "min": [
        -0.9999995231628418,
        -0.99999940395355225,
        -1
      ],
      "type": "VEC3"
    },
    {
      "bufferView": 1,
      "componentType": 5126,
      "count": 65532,
      "max": [
        0.99978399276733398,
        0.9405519962310791
      ],
      "min": [
        0.00012199999764561653,
        0.0003800000122282654
      ],
      "type": "VEC2"
    },
    {
      "bufferView": 0,
      "componentType": 5125,
      "count": 276984,
      "max": [
        65531
      ],
      "min": [
        0
      ],
      "type": "SCALAR"
    },
    {
      "bufferView": 2,
      "byteOffset": 1572768,
      "componentType": 5126,
      "count": 65532,
      "max": [
        15.90174388885498,
        13.190363883972168,
        22.261629104614258
      ],
      "min": [
        -16.935983657836914,
        -14.905864715576172,
        0.57980823516845703
      ],
      "type": "VEC3"
    },
    {
      "bufferView": 2,
      "byteOffset": 2359152,
      "componentType": 5126,
      "count": 65532,
      "max": [
        0.99998831748962402,
        0.99999064207077026,
        1
      ],
      "min": [
        -0.99998265504837036,
        -0.9999968409538269,
        -1
      ],
      "type": "VEC3"
    },
    {
      "bufferView": 1,
      "byteOffset": 524256,
      "componentType": 5126,
      "count": 65532,
      "max": [
        0.99763000011444092,
        0.9405519962310791
      ],
      "min": [
        0.00085399998351931572,
        0.00037299998803064227
      ],
      "type": "VEC2"
    },
    {
      "bufferView": 0,
      "byteOffset": 1107936,
      "componentType": 5125,
      "count": 302601,
      "max": [
        65531
      ],
      "min": [
        0
      ],
      "type": "SCALAR"
    },
    {
      "bufferView": 2,
      "byteOffset": 3145536,
      "componentType": 5126,
      "count": 65532,
      "max": [
        17.128236770629883,
        13.278822898864746,
        22.235271453857422
      ],
      "min": [
        -17.099777221679688,
        -14.322970390319824,
        0.57980823516845703
      ],
      "type": "VEC3"
    },
    {
      "bufferView": 2,
      "byteOffset": 3931920,
      "componentType": 5126,
      "count": 65532,
      "max": [
        0.99999898672103882,
        0.9999968409538269,
        1
      ],
      "min": [
        -0.9999997615814209,
        -0.99999994039535522,
        -1
      ],
      "type": "VEC3"
    },
    {
      "bufferView": 1,
      "byteOffset": 1048512,
      "componentType": 5126,
      "count": 65532,
      "max": [
        0.99971401691436768,
        0.9405519962310791
      ],
      "min": [
        0.00012199999764561653,
        0.00037299998803064227
      ],
      "type": "VEC2"
    },
    {
      "bufferView": 0,
      "byteOffset": 2318340,
      "componentType": 5125,
      "count": 271011,
      "max": [
        65531
      ],
      "min": [
        0
      ],
      "type": "SCALAR"
    },
    {
      "bufferView": 2,
      "byteOffset": 4718304,
      "componentType": 5126,
      "count": 65532,
      "max": [
        17.184114456176758,
        14.253779411315918,
        22.262903213500977
      ],
      "min": [
        -14.96320915222168,
        -14.739090919494629,
        0.57980823516845703
      ],
      "type": "VEC3"
    },
    {
      "bufferView": 2,
      "byteOffset": 5504688,
      "componentType": 5126,
      "count": 65532,
      "max": [
        0.9999995231628418,
        0.99999690055847168,
        1
      ],
      "min": [
        -0.99999696016311646,
        -0.99999356269836426,
        -1
      ],
      "type": "VEC3"
    },
    {
      "bufferView": 1,
      "byteOffset": 1572768,
      "componentType": 5126,
      "count": 65532,
      "max": [
        0.99872899055480957,
        0.9405519962310791
      ],
      "min": [
        0.00012199999764561653,
        0.0004619999963324517
      ],
      "type": "VEC2"
    },
    {
      "bufferView": 0,
      "byteOffset": 3402384,
      "componentType": 5125,
      "count": 256002,
      "max": [
        65531
      ],
      "min": [
        0
      ],
      "type": "SCALAR"
    },
    {
      "bufferView": 2,
      "byteOffset": 6291072,
      "componentType": 5126,
      "count": 65532,
      "max": [
        16.410755157470703,
        13.096774101257324,
        22.254768371582031
      ],
      "min": [
        -16.961465835571289,
        -14.54417896270752,
        0.57980823516845703
      ],
      "type": "VEC3"
    },
    {
      "bufferView": 2,
      "byteOffset": 7077456,
      "componentType": 5126,
      "count": 65532,
      "max": [
        0.99999320507049561,
        0.99999594688415527,
        1
      ],
      "min": [
        -0.99999845027923584,
        -1,
        -1
      ],
      "type": "VEC3"
    },
    {
      "bufferView": 1,
      "byteOffset": 2097024,
      "componentType": 5126,
      "count": 65532,
      "max": [
        0.99962800741195679,
        0.9405519962310791
      ],
      "min": [
        0.00012199999764561653,
        0.00038899999344721437
      ],
      "type": "VEC2"
    },
    {
      "bufferView": 0,
      "byteOffset": 4426392,
      "componentType": 5125,
      "count": 253665,
      "max": [
        65531
      ],
      "min": [
        0
      ],
      "type": "SCALAR"
    },
    {
      "bufferView": 2,
      "byteOffset": 7863840,
      "componentType": 5126,
      "count": 65532,
      "max": [
        17.117290496826172,
        13.062775611877441,
        22.213727951049805
      ],
      "min": [
        -16.066986083984375,
        -14.365119934082031,
        0.57980823516845703
      ],
      "type": "VEC3"
    },
    {
      "bufferView": 2,
      "byteOffset": 8650224,
      "componentType": 5126,
      "count": 65532,
      "max": [
        0.99993216991424561,
        0.99999696016311646,
        1
      ],
      "min": [
        -0.99999707937240601,
        -0.99999630451202393,
        -1
      ],
      "type": "VEC3"
    },
    {
      "bufferView": 1,
      "byteOffset": 2621280,
      "componentType": 5126,
      "count": 65532,
      "max": [
        0.99980998039245605,
        0.9405519962310791
      ],
      "min": [
        0.00012199999764561653,
        0.000450999999884516
      ],
      "type": "VEC2"
    },
    {
      "bufferView": 0,
      "byteOffset": 5441052,
      "componentType": 5125,
      "count": 259284,
      "max": [
        65531
      ],
      "min": [
        0
      ],
      "type": "SCALAR"
    },
    {
      "bufferView": 2,
      "byteOffset": 9436608,
      "componentType": 5126,
      "count": 65532,
      "max": [
        21.041147232055664,
        13.05431079864502,
        22.262903213500977
      ],
      "min": [
        -15.79798698425293,
        -13.517141342163086,
        0.57980823516845703
      ],
      "type": "VEC3"
    },
    {
      "bufferView": 2,
      "byteOffset": 10222992,
      "componentType": 5126,
      "count": 65532,
      "max": [
        0.99999672174453735,
        0.99999958276748657,
        1
      ],
      "min": [
        -0.9999997615814209,
        -0.99999874830245972,
        -1
      ],
      "type": "VEC3"
    },
    {
      "bufferView": 1,
      "byteOffset": 3145536,
      "componentType": 5126,
      "count": 65532,
      "max": [
        0.99973601102828979,
        0.9405519962310791
      ],
      "min": [
        0.00012199999764561653,
        0.0013940000208094716
      ],
      "type": "VEC2"
    },
    {
      "bufferView": 0,
      "byteOffset": 6478188,
      "componentType": 5125,
      "count": 249759,
      "max": [
        65531
      ],
      "min": [
        0
      ],
      "type": "SCALAR"
    },
    {
      "bufferView": 2,
      "byteOffset": 11009376,
      "componentType": 5126,
      "count": 65532,
      "max": [
        17.117290496826172,
        13.104877471923828,
        22.248844146728516
      ],
      "min": [
        -17.060665130615234,
        -15.008349418640137,
        0.57980823516845703
      ],
      "type": "VEC3"
    },
    {
      "bufferView": 2,
      "byteOffset": 11795760,
      "componentType": 5126,
      "count": 65532,
      "max": [
        0.99999749660491943,
        0.99999618530273438,
        0.99999994039535522
      ],
      "min": [
        -0.99999791383743286,
        -0.99997985363006592,
        -1
      ],
      "type": "VEC3"
    },
    {
      "bufferView": 1,
      "byteOffset": 3669792,
      "componentType": 5126,
      "count": 65532,
      "max": [
        0.99969398975372314,
        0.9405519962310791
      ],
      "min": [
        0.00012199999764561653,
        0.00038099999073892832
      ],
      "type": "VEC2"
    },
    {
      "bufferView": 0,
      "byteOffset": 7477224,
      "componentType": 5125,
      "count": 243624,
      "max": [
        65531
      ],
      "min": [
        0
      ],
      "type": "SCALAR"
    },
    {
      "bufferView": 2,
      "byteOffset": 12582144,
      "componentType": 5126,
      "count": 65532,
      "max": [
        17.184114456176758,
        17.462226867675781,
        22.234428405761719
      ],
      "min": [
        -17.091514587402344,
        -14.997027397155762,
        1.0676994323730469
      ],
      "type": "VEC3"
    },
    {
      "bufferView": 2,
      "byteOffset": 13368528,
      "componentType": 5126,
      "count": 65532,
      "max": [
        0.99999749660491943,
        0.99999278783798218,
        1
      ],
      "min": [
        -0.99998819828033447,
        -0.99994909763336182,
        -1
      ],
      "type": "VEC3"
    },
    {
      "bufferView": 1,
      "byteOffset": 4194048,
      "componentType": 5126,
      "count": 65532,
      "max": [
        0.99971002340316772,
        0.94030797481536865
      ],
      "min": [
        0.00012199999764561653,
        0.0003800000122282654
      ],
      "type": "VEC2"
    },
    {
      "bufferView": 0,
      "byteOffset": 8451720,
      "componentType": 5125,
      "count": 229434,
      "max": [
        65531
      ],
      "min": [
        0
      ],
      "type": "SCALAR"
    },
    {
      "bufferView": 2,
      "byteOffset": 14154912,
      "componentType": 5126,
      "count": 65532,
      "max": [
        16.259128570556641,
        13.190363883972168,
        22.253734588623047
      ],
      "min": [
        -16.640110015869141,
        -15.008349418640137,
        1.0973963737487793
      ],
      "type": "VEC3"
    },
    {
      "bufferView": 2,
      "byteOffset": 14941296,
      "componentType": 5126,
      "count": 65532,
      "max": [
        0.99999594688415527,
        0.99999785423278809,
        0.99999994039535522
      ],
      "min": [
        -0.99999934434890747,
        -0.9999966025352478,
        -1
      ],
      "type": "VEC3"
    },
    {
      "bufferView": 1,
      "byteOffset": 4718304,
      "componentType": 5126,
      "count": 65532,
      "max": [
        0.99981099367141724,
        0.9405519962310791
      ],
      "min": [
        0.00012199999764561653,
        0.041058000177145004
      ],
      "type": "VEC2"
    },
    {
      "bufferView": 0,
      "byteOffset": 9369456,
      "componentType": 5125,
      "count": 210633,
      "max": [
        65531
      ],
      "min": [
        0
      ],
      "type": "SCALAR"
    },
    {
      "bufferView": 2,
      "byteOffset": 15727680,
      "componentType": 5126,
      "count": 65532,
      "max": [
        21.041147232055664,
        13.101195335388184,
        22.755001068115234
      ],
      "min": [
        -17.099777221679688,
        -17.115646362304688,
        1.1827211380004883
      ],
      "type": "VEC3"
    },
    {
      "bufferView": 2,
      "byteOffset": 16514064,
      "componentType": 5126,
      "count": 65532,
      "max": [
        0.9999966025352478,
        0.99999785423278809,
        1
      ],
      "min": [
        -0.99999880790710449,
        -0.99999171495437622,
        -1
      ],
      "type": "VEC3"
    },
    {
      "bufferView": 1,
      "byteOffset": 5242560,
      "componentType": 5126,
      "count": 65532,
      "max": [
        0.99971699714660645,
        0.9405519962310791
      ],
      "min": [
        0.00012199999764561653,
        0.001854000031016767
      ],
      "type": "VEC2"
    },
    {
      "bufferView": 0,
      "byteOffset": 10211988,
      "componentType": 5125,
      "count": 206679,
      "max": [
        65531
      ],
      "min": [
        0
      ],
      "type": "SCALAR"
    },
    {
      "bufferView": 2,
      "byteOffset": 17300448,
      "componentType": 5126,
      "count": 65532,
      "max": [
        17.319883346557617,
        17.257196426391602,
        22.254768371582031
      ],
      "min": [
        -17.099777221679688,
        -14.650651931762695,
        0.57980823516845703
      ],
      "type": "VEC3"
    },
    {
      "bufferView": 2,
      "byteOffset": 18086832,
      "componentType": 5126,
      "count": 65532,
      "max": [
        0.99999755620956421,
        0.99999463558197021,
        1
      ],
      "min": [
        -0.99999880790710449,
        -0.99999064207077026,
        -1
      ],
      "type": "VEC3"
    },
    {
      "bufferView": 1,
      "byteOffset": 5766816,
      "componentType": 5126,
      "count": 65532,
      "max": [
        0.99973100423812866,
        0.9405519962310791
      ],
      "min": [
        0.00012199999764561653,
        0.00037699998938478529
      ],
      "type": "VEC2"
    },
    {
      "bufferView": 0,
      "byteOffset": 11038704,
      "componentType": 5125,
      "count": 173796,
      "max": [
        65531
      ],
      "min": [
        0
      ],
      "type": "SCALAR"
    },
    {
      "bufferView": 2,
      "byteOffset": 18873216,
      "componentType": 5126,
      "count": 30151,
      "max": [
        21.041147232055664,
        13.516133308410645,
        22.755001068115234
      ],
      "min": [
        -20.305931091308594,
        -16.905447006225586,
        0.57980823516845703
      ],
      "type": "VEC3"
    },
    {
      "bufferView": 2,
      "byteOffset": 19235028,
      "componentType": 5126,
      "count": 30151,
      "max": [
        0.99998348951339722,
        0.99998980760574341,
        1
      ],
      "min": [
        -0.99999701976776123,
        -0.99998050928115845,
        -1
      ],
      "type": "VEC3"
    },
    {
      "bufferView": 1,
      "byteOffset": 6291072,
      "componentType": 5126,
      "count": 30151,
      "max": [
        0.99981498718261719,
        0.94030797481536865
      ],
      "min": [
        0.00012199999764561653,
        0.00046599999768659472
      ],
      "type": "VEC2"
    },
    {
      "bufferView": 0,
      "byteOffset": 11733888,
      "componentType": 5125,
      "count": 66522,
      "max": [
        30150
      ],
      "min": [
        0
      ],
      "type": "SCALAR"
    }
  ],
  "asset": {
    "extras": {
      "author": "The Hallwyl Museum (Hallwylska museet) (https://sketchfab.com/TheHallwylMuseum)",
      "license": "CC-BY-4.0 (http://creativecommons.org/licenses/by/4.0/)",
      "source": "https://sketchfab.com/3d-models/the-morning-room-338cfb58457f41078fc8af7730b52482",
      "title": "The Morning Room"
    },
    "generator": "Sketchfab-9.94.0",
    "version": "2.0"
  },
  "bufferViews": [
    {
      "buffer": 0,
      "byteLength": 11999976,
      "byteOffset": 0,
      "name": "floatBufferViews",
      "target": 34963
    },
    {
      "buffer": 0,
      "byteLength": 6532280,
      "byteOffset": 11999976,
      "byteStride": 8,
      "name": "floatBufferViews",
      "target": 34962
    },
    {
      "buffer": 0,
      "byteLength": 19596840,
      "byteOffset": 18532256,
      "byteStride": 12,
      "name": "floatBufferViews",
      "target": 34962
    }
  ],
  "buffers": [
    {
      "byteLength": 38129096,
      "uri": "scene.bin"
    }
  ],
  "extensionsUsed": [
    "KHR_materials_unlit"
  ],
  "images": [
    {
      "uri": "textures/model_Material_u1_v1_baseColor.jpeg"
    }
  ],
  "materials": [
    {
      "doubleSided": false,
      "extensions": {
        "KHR_materials_unlit": {}
      },
      "name": "model_Material_u1_v1",
      "pbrMetallicRoughness": {
        "baseColorFactor": [
          1,
          1,
          1,
          1
        ],
        "baseColorTexture": {
          "index": 0,
          "texCoord": 0
        },
        "metallicFactor": 0,
        "roughnessFactor": 1
      }
    }
  ],
  "meshes": [
    {
      "primitives": [
        {
          "attributes": {
            "NORMAL": 1,
            "POSITION": 0,
            "TEXCOORD_0": 2
          },
          "indices": 3,
          "material": 0,
          "mode": 4
        }
      ]
    },
    {
      "primitives": [
        {
          "attributes": {
            "NORMAL": 5,
            "POSITION": 4,
            "TEXCOORD_0": 6
          },
          "indices": 7,
          "material": 0,
          "mode": 4
        }
      ]
    },
    {
      "primitives": [
        {
          "attributes": {
            "NORMAL": 9,
            "POSITION": 8,
            "TEXCOORD_0": 10
          },
          "indices": 11,
          "material": 0,
          "mode": 4
        }
      ]
    },
    {
      "primitives": [
        {
          "attributes": {
            "NORMAL": 13,
            "POSITION": 12,
            "TEXCOORD_0": 14
          },
          "indices": 15,
          "material": 0,
          "mode": 4
        }
      ]
    },
    {
      "primitives": [
        {
          "attributes": {
            "NORMAL": 17,
            "POSITION": 16,
            "TEXCOORD_0": 18
          },
          "indices": 19,
          "material": 0,
          "mode": 4
        }
      ]
    },
    {
      "primitives": [
        {
          "attributes": {
            "NORMAL": 21,
            "POSITION": 20,
            "TEXCOORD_0": 22
          },
          "indices": 23,
          "material": 0,
          "mode": 4
        }
      ]
    },
    {
      "primitives": [
        {
          "attributes": {
            "NORMAL": 25,
            "POSITION": 24,
            "TEXCOORD_0": 26
          },
          "indices": 27,
          "material": 0,
          "mode": 4
        }
      ]
    },
    {
      "primitives": [
        {
          "attributes": {
            "NORMAL": 29,
            "POSITION": 28,
            "TEXCOORD_0": 30
          },
          "indices": 31,
          "material": 0,
          "mode": 4
        }
      ]
    },
    {
      "primitives": [
        {
          "attributes": {
            "NORMAL": 33,
            "POSITION": 32,
            "TEXCOORD_0": 34
          },
          "indices": 35,
          "material": 0,
          "mode": 4
        }
      ]
    },
    {
      "primitives": [
        {
          "attributes": {
            "NORMAL": 37,
            "POSITION": 36,
            "TEXCOORD_0": 38
          },
          "indices": 39,
          "material": 0,
          "mode": 4
        }
      ]
    },
    {
      "primitives": [
        {
          "attributes": {
            "NORMAL": 41,
            "POSITION": 40,
            "TEXCOORD_0": 42
          },
          "indices": 43,
          "material": 0,
          "mode": 4
        }
      ]
    },
    {
      "primitives": [
        {
          "attributes": {
            "NORMAL": 45,
            "POSITION": 44,
            "TEXCOORD_0": 46
          },
          "indices": 47,
          "material": 0,
          "mode": 4
        }
      ]
    },
    {
      "primitives": [
        {
          "attributes": {
            "NORMAL": 49,
            "POSITION": 48,
            "TEXCOORD_0": 50
          },
          "indices": 51,
          "material": 0,
          "mode": 4
        }
      ]
    }
  ],
  "nodes": [
    {
      "children": [
        1
      ],
      "name": "RootNode (gltf orientation matrix)",
      "rotation": [
        -0.70710678118654746,
        -0,
        -0,
        0.70710678118654757
      ]
    },
    {
      "children": [
        2
      ],
      "matrix": [
        0.22957807779312134,
        0,
        0,
        0,
        0,
        0.22957807779312134,
        0,
        0,
        0,
        0,
        0.22957807779312134,
        0,
        0,
        0,
        0,
        1
      ],
      "name": "RootNode (model correction matrix)"
    },
    {
      "children": [
        3,
        4,
        5,
        6,
        7,
        8,
        9,
        10,
        11,
        12,
        13,
        14,
        15
      ],
      "name": "model.obj.cleaner.materialmerger.gles"
    },
    {
      "mesh": 0,
      "name": ""
    },
    {
      "mesh": 1,
      "name": ""
    },
    {
      "mesh": 2,
      "name": ""
    },
    {
      "mesh": 3,
      "name": ""
    },
    {
      "mesh": 4,
      "name": ""
    },
    {
      "mesh": 5,
      "name": ""
    },
    {
      "mesh": 6,
      "name": ""
    },
    {
      "mesh": 7,
      "name": ""
    },
    {
      "mesh": 8,
      "name": ""
    },
    {
      "mesh": 9,
      "name": ""
    },
    {
      "mesh": 10,
      "name": ""
    },
    {
      "mesh": 11,
      "name": ""
    },
    {
      "mesh": 12,
      "name": ""
    }
  ],
  "samplers": [
    {
      "magFilter": 9729,
      "minFilter": 9987,
      "wrapS": 10497,
      "wrapT": 10497
    }
  ],
  "scene": 0,
  "scenes": [
    {
      "name": "OSG_Scene",
      "nodes": [
        0
      ]
    }
  ],
  "textures": [
    {
      "sampler": 0,
      "source": 0
    }
  ]
}

